<svg width="120" height="100" viewBox="0 0 120 100" fill="none" xmlns="http://www.w3.org/2000/svg">
<path d="M35 35H85C86.5 35 88 35.5 89 35.5C89.5 34 90 32 90 30.5C90 24 87 18 81.5 14.5L60 0L38.5 14C33.5 18 30 24 30 30.5C30 32.5 30.5 34 31 35.5C32 35.5 33.5 35 35 35ZM120 30C120 24.5 110 15 110 15C110 15 100 24.5 100 30C100 33.5 102 37 105 38.5V60H95V50C95 44.5 90.5 40 85 40H35C29.5 40 25 44.5 25 50V60H15V38.5C18 37 20 33.5 20 30C20 24.5 10 15 10 15C10 15 0 24.5 0 30C0 33.5 2 37 5 38.5V100H50V80C50 74.5 54.5 70 60 70C65.5 70 70 74.5 70 80V100H115V38.5C118 37 120 33.5 120 30Z" fill="#177245"/>
</svg>
